<svg xmlns="http://www.w3.org/2000/svg" viewBox="0 0 800 600">
  <rect width="800" height="600" fill="#08090b"/>
  <circle cx="400" cy="300" r="280" fill="#0d0f12" stroke="#1d2126" stroke-width="30"/>
  <circle cx="400" cy="300" r="222" fill="#121418" stroke="#3b4048" stroke-width="6"/>
  <path d="M480 110 A200 200 0 0 1 590 250" stroke="#d6a84a" stroke-width="34" fill="none" stroke-linecap="round"/>
  <line x1="460" y1="300" x2="605" y2="300" stroke="#565c66" stroke-width="18" stroke-linecap="round"/><line x1="448.54101966249686" y1="335.2671151375484" x2="565.8484838468643" y2="420.495976719957" stroke="#565c66" stroke-width="10" stroke-linecap="round"/><line x1="418.54101966249686" y1="357.0633909777092" x2="463.3484838468642" y2="494.96658584050647" stroke="#565c66" stroke-width="18" stroke-linecap="round"/><line x1="381.45898033750314" y1="357.0633909777092" x2="336.6515161531358" y2="494.96658584050647" stroke="#565c66" stroke-width="10" stroke-linecap="round"/><line x1="351.45898033750314" y1="335.2671151375484" x2="234.1515161531358" y2="420.495976719957" stroke="#565c66" stroke-width="18" stroke-linecap="round"/><line x1="340" y1="300" x2="195" y2="300" stroke="#565c66" stroke-width="10" stroke-linecap="round"/><line x1="351.45898033750314" y1="264.7328848624516" x2="234.15151615313576" y2="179.50402328004304" stroke="#565c66" stroke-width="18" stroke-linecap="round"/><line x1="381.45898033750314" y1="242.93660902229078" x2="336.65151615313573" y2="105.03341415949353" stroke="#565c66" stroke-width="10" stroke-linecap="round"/><line x1="418.5410196624968" y1="242.93660902229078" x2="463.34848384686416" y2="105.0334141594935" stroke="#565c66" stroke-width="18" stroke-linecap="round"/><line x1="448.54101966249686" y1="264.7328848624516" x2="565.8484838468642" y2="179.50402328004296" stroke="#565c66" stroke-width="10" stroke-linecap="round"/>
  <circle cx="400" cy="300" r="56" fill="#1a1d22" stroke="#4a5058" stroke-width="4"/>
  <path d="M250 150 C320 90 470 80 560 130" stroke="#fff" stroke-opacity=".25" stroke-width="6" fill="none"/>
</svg>
